<svg width="512" height="512" viewBox="0 0 512 512" fill="none" xmlns="http://www.w3.org/2000/svg">
<rect width="512" height="512" fill="white"/>
<path d="M75.5312 208.781H425.531V248.82H280.805C278.982 281.893 274.815 308.456 268.305 328.508C258.409 359.107 241.872 383.521 218.695 401.75C204.372 413.078 184.776 423.82 159.906 433.977L131.977 399.211C173.253 382.544 201.247 361.32 215.961 335.539C226.898 316.268 233.279 287.362 235.102 248.82H75.5312V208.781ZM118.305 97.6484H337.836V137.688H118.305V97.6484ZM373.578 143.938C365.375 116.724 355.87 93.4167 345.062 74.0156L375.922 67.1797C387.38 86.1901 396.82 109.107 404.242 135.93L373.578 143.938ZM423.969 133.195C419.021 111.32 409.516 87.8828 395.453 62.8828L425.141 56.8281C437.38 76.099 447.406 98.625 455.219 124.406L423.969 133.195Z" fill="black"/>
</svg>
